PathFileType	4	(X/Y/Z)	22_coords_data.trc
DataRate	CameraRate	NumFrames	NumMarkers	Units	OrigDataRate	OrigDataStartFrame	OrigNumFrames
30.0	30.0	8	21	m	30.0	40	59
Frame#	Time	THUMB_TIP	THUMB_IP	THUMB_MCP	THUMB_CMC	INDEX_TIP	INDEX_DIP	INDEX_PIP	INDEX_MCP	MIDDLE_TIP	MIDDLE_DIP	MIDDLE_PIP	MIDDLE_MCP	RING_TIP	RING_DIP	RING_PIP	RING_MCP	PINKY_TIP	PINKY_DIP	PINKY_PIP	PINKY_MCP	WRIST
X1	Y1	Z1	X2	Y2	Z2	X3	Y3	Z3	X4	Y4	Z4	X5	Y5	Z5	X6	Y6	Z6	X7	Y7	Z7	X8	Y8	Z8	X9	Y9	Z9	X10	Y10	Z10	X11	Y11	Z11	X12	Y12	Z12	X13	Y13	Z13	X14	Y14	Z14	X15	Y15	Z15	X16	Y16	Z16	X17	Y17	Z17	X18	Y18	Z18	X19	Y19	Z19	X20	Y20	Z20	X21	Y21	Z21
38	1.299999999999994	0.5694811260700368	0.03822793087866083	-0.07083389551409677	0.5505195874051183	0.025451963914928433	-0.06854594455299183	0.5257790205000904	0.006564981125995684	-0.06846701199694405	0.48895427825512944	-0.01255675289162328	-0.052090576281208556	0.5787942079490045	0.07981805520566798	-0.026657942615504557	0.5639026319388097	0.07592377863679134	-0.03620129495824526	0.5429734265469253	0.07004548401296895	-0.04882761061166737	0.5107566994457979	0.04559412355831238	-0.06216363553695722	0.5627100960102338	0.09264018436661337	-0.006132184399680694	0.5477161426524554	0.09024524066403938	-0.01600363856643172	0.5236251012132755	0.08305722808994298	-0.03074689965787144	0.49704737008506955	0.05048415352860425	-0.045871943218081586	0.5457495293728267	0.09201730414920861	0.007408957823657237	0.5309894982527545	0.08731148560974111	-0.0018104105499410286	0.5112269405056431	0.07869890301339988	-0.014278157391824406	0.4875693588673426	0.04941308913745368	-0.029021995787933744	0.5184733449463454	0.09071278884273615	0.021329730435933766	0.5095607237986872	0.0784564040471104	0.01337069682500664	0.4984970700872162	0.06419702928834514	0.0026432639055359447	0.48079190879737754	0.038164365067056116	-0.0149553470692661	0.46228308100186094	-0.023011742144276925	-0.051989820119430985
39	1.3333333333333275	0.568207312108306	0.04109064550396857	-0.06752640432559093	0.5495910184635072	0.027722006117240405	-0.06587925773883907	0.5254712610819705	0.008059358958585228	-0.06654077914440906	0.48874361886506823	-0.012064114985979368	-0.05117796385587361	0.5758276170553663	0.0814039086905638	-0.023074272715023315	0.561356375876585	0.07752059841217529	-0.0332479190636688	0.5409709108115868	0.0716014815620295	-0.04671664961996314	0.5098118492196165	0.0463971679701034	-0.06112121664114293	0.5584401674872471	0.09504485789516637	-0.0031741679477457797	0.544043182669006	0.09223217932606609	-0.013795639946026415	0.5207386255811637	0.08450707095772036	-0.029500093761324023	0.49562586756495886	0.05108758423789128	-0.04526826465089507	0.5414053582553701	0.09368971642376323	0.009710244239458758	0.5271367584049189	0.08878672699270862	-0.00015726572743132716	0.5079610873497699	0.07994265155646063	-0.013357869814467453	0.48554278391230066	0.04997133356684336	-0.028650371341386257	0.5143103389857314	0.09179308028037736	0.022632261277213843	0.5057411933055467	0.07946743365239939	0.014407410061903856	0.49516067410487397	0.06509330438222938	0.0033507812733156173	0.4785817026618041	0.038666796323589714	-0.014750622780418207	0.4622830810018609	-0.023011742144276925	-0.051989820119430985
40	1.3666666666666607	0.5666776990445467	0.04387095920801687	-0.06543605454534598	0.5484335918578688	0.029951664585675775	-0.06425039431683681	0.5249497665001632	0.009553002170086478	-0.06535697383210497	0.4885415512146917	-0.011634331520815056	-0.050679482534299665	0.5735017125132783	0.08240804029824	-0.020678466954582794	0.5592566289593002	0.07872136536813379	-0.031237161120998835	0.5391644817105141	0.07297113609660677	-0.04521036101429359	0.5087963833873622	0.04718795245381868	-0.06026499948479974	0.55548160415225	0.09625249462429686	-0.0011992525137505573	0.541405324510502	0.09339790800213876	-0.012231463836232838	0.5184841767704819	0.08555070119204178	-0.028431830546889098	0.4944155301978191	0.05155673675666428	-0.04459532506777	0.5387522166614043	0.09435775251167988	0.011222085540398535	0.5246901467619616	0.08943382768187036	0.001072545924555142	0.5057588616859726	0.08059578838756487	-0.012480147010944964	0.484104678998971	0.05024195676807375	-0.028115431216022474	0.5119867367407707	0.09200936483808397	0.02376094161011097	0.5035381546353976	0.07973347735022329	0.015339300036512887	0.4931918205986795	0.06536261784653707	0.004059061203670729	0.47724450665241797	0.038776304328937417	-0.01437282861922251	0.4622830810018609	-0.023011742144276925	-0.051989820119430985
41	1.3999999999999937	0.5651707255855205	0.04633406419682462	-0.06418054116140773	0.5472896238816243	0.031928656403019895	-0.06331426860088671	0.5243390907750646	0.01094972227064428	-0.06472045237057988	0.4883641789015601	-0.011256389978385517	-0.050487241401965824	0.5717165819142581	0.08307491087927588	-0.019144339613160484	0.5575408446115913	0.07966827365462836	-0.029888793752176804	0.5375540698357738	0.07417072112721002	-0.044112562003558856	0.5077556455490752	0.04794735972866293	-0.059540631260308896	0.5534378825154497	0.09691887726344894	9.749479791797827e-05	0.5394327233178944	0.09415777756633303	-0.01104843918330219	0.5166229622943344	0.08633602257357231	-0.027417449565158004	0.49332912951227853	0.05193970909984047	-0.04386247600899219	0.5371022880870951	0.09458521424084732	0.012382469527128865	0.5230649394253926	0.089688759407621	0.002185530152200025	0.5042018691136569	0.08088587406562653	-0.01148464786676591	0.48309142061212973	0.050308431535511566	-0.027424842545059183	0.5109292715614375	0.09157976551728031	0.024933443173827396	0.5024550952316683	0.07942921513480472	0.01635717003598361	0.4921239011086068	0.06519521246789328	0.004891062803361927	0.4764947058866777	0.03860716131078756	-0.013808863490128095	0.4622830810018609	-0.023011742144276925	-0.051989820119430985
42	1.4333333333333271	0.5638619139100961	0.04831375137663496	-0.0637450491450331	0.546267743195986	0.03354957264456282	-0.06306373919341068	0.5237012998419843	0.012168406484239114	-0.06461981373380125	0.48821106014030685	-0.010913155830948096	-0.05056369880087576	0.5703865905382515	0.08359263061750255	-0.018442900699710114	0.5561511446483227	0.08048502023527593	-0.029199054195602106	0.5361124481041306	0.07525226108011229	-0.04344962279597151	0.5067070032669119	0.0486629876446385	-0.05900489348146242	0.5521155793595482	0.09719366393153095	0.0008555552635775357	0.5380127431614841	0.0946098026260126	-0.0102094197442756	0.5151187962331234	0.08690620070625321	-0.026516818724593983	0.4923391005579698	0.0522635268425331	-0.043163696315280956	0.5361490671173264	0.09447727664711636	0.013249179716310535	0.522011737819227	0.08969032082029904	0.003138740842097202	0.5030718263375036	0.08096676889887733	-0.010475934105867703	0.4823586633067727	0.050264613035187033	-0.02669516147908226	0.5106194296218856	0.09084945452258852	0.026057401804819073	0.5020307317114225	0.07886559871068743	0.01736134131271274	0.491604008098798	0.06481575837227149	0.005755418679377629	0.4761487435427752	0.03828854737308063	-0.01317406427995732	0.46228308100186083	-0.023011742144276925	-0.051989820119430985
43	1.4666666666666603	0.5627950697001011	0.04982619838984825	-0.06393723862289813	0.5454219238505756	0.03479910961762045	-0.06333690011613641	0.5231017890613012	0.01316443667460987	-0.06494080461378876	0.4880993804950561	-0.010644634188869406	-0.05087490474284308	0.5695320393428713	0.0838977338489697	-0.018446872452471945	0.5551279990059386	0.0811267665280131	-0.0290697422190747	0.534894038371573	0.07619481074524848	-0.04315066840323609	0.5056988704077021	0.049315890166194865	-0.058603884575486535	0.5514987273926257	0.09705522045811665	0.0011764206586996027	0.5371753641551643	0.0947196646086127	-0.00965808184218089	0.5140236800164757	0.08725774366329875	-0.025712016168329216	0.49148021274599385	0.05251743730554104	-0.042476595453054954	0.5359671285049804	0.09399456319954691	0.01383936899819195	0.5216277977882164	0.08936271334533996	0.003943432381410584	0.5024693839733796	0.08081446091675759	-0.009475305991353968	0.4819332918280078	0.05009761463983664	-0.025890698408132115	0.5111532872796902	0.08979399437849267	0.02709130374755364	0.5023528327312192	0.0780158608186029	0.018326170001529363	0.4917015354358042	0.06419291994376641	0.0066519166851299605	0.4762098521809565	0.03780220780169985	-0.012437910804034481	0.46228308100186094	-0.023011742144276925	-0.051989820119430985
44	1.4999999999999936	0.5618874980432318	0.051049026566857836	-0.06449937876167369	0.5446756726521398	0.03583689661644096	-0.06391271950947414	0.5225093934119637	0.014043642530674694	-0.0655033612038128	0.48800219338660655	-0.010412012160261108	-0.051323653870877436	0.5690519406821754	0.08396961720861995	-0.018868504782706973	0.5544163339175838	0.08157737583695168	-0.02926447495638108	0.533897778794593	0.07696725389136738	-0.04303928908622079	0.5047772280036659	0.04988945785995824	-0.058284700780053225	0.5513790520281195	0.09667053080847432	0.0012417740669499015	0.5367780040098353	0.09463043052706344	-0.009277132131393515	0.5132801241513528	0.08742632952140006	-0.02494110738854076	0.490777753859028	0.05269426574854208	-0.04177782316998794	0.5363953297943626	0.09319958199571454	0.014245789456630395	0.5217926088623212	0.08876787932191299	0.00464784421861485	0.5023285702671891	0.0804537265252665	-0.008474885826662532	0.48177233095672334	0.04983309225914623	-0.025044092704222108	0.5124209782255363	0.08839229015915695	0.028076530234485357	0.5033231845911598	0.07687244217544642	0.01927180119728636	0.4923397005428576	0.06332883304718229	0.007577967397309052	0.47658679958607525	0.03719263861105315	-0.011647768033167041	0.4622830810018609	-0.023011742144276925	-0.051989820119430985
45	1.5333333333333266	0.5612398654325526	0.0518836379439761	-0.06533355015365233	0.5441211759508113	0.0365686036683881	-0.06470094003257465	0.5219763246139822	0.014749132657591368	-0.06622941773235812	0.4879014743088082	-0.010191899608151811	-0.051850979493135434	0.5688631388695933	0.08389423543186247	-0.0195664527286259	0.5539627849314311	0.08186678711004802	-0.029659465451290362	0.5331221476243537	0.07757120830841802	-0.043046984728357454	0.5039661503758017	0.05037863327947534	-0.05801788255506626	0.5516473949744977	0.09607922848329464	0.0011373698081698184	0.5367492248089302	0.09433006485591655	-0.00901078038398103	0.5128596050641165	0.08742131734761993	-0.024208307364210965	0.49022452685933005	0.05280740525544236	-0.041110326336458336	0.5371786362545697	0.09225497346223477	0.014519295581119772	0.5222958494451589	0.08804018884784592	0.0052598005927340895	0.5025037012786122	0.07995394887184015	-0.0075098342103411125	0.48178287718919105	0.04951704619448216	-0.024212026834793524	0.513997831514262	0.08687947324110434	0.02895698549117561	0.5045774965949593	0.07562459346791439	0.02014875233694962	0.4932350490090827	0.062366141623908855	0.008470809176365772	0.47713302404471436	0.03654497509829535	-0.010890895353540736	0.4622830810018609	-0.023011742144276925	-0.051989820119430985
